<svg width="323" height="248" viewBox="0 0 323 248" fill="none" xmlns="http://www.w3.org/2000/svg">
<path d="M195.288 82.1965C186.519 72.2859 174.723 65.5482 161.732 63.0299C148.741 60.5116 135.282 62.3536 123.445 68.2699C111.609 74.1863 102.057 83.8457 96.2734 95.748C90.4901 107.65 88.799 121.129 91.4627 134.091C94.1264 147.053 100.996 158.773 111.004 167.43C121.012 176.087 133.599 181.197 146.81 181.966C160.02 182.735 173.115 179.121 184.061 171.683C195.006 164.246 203.189 153.403 207.339 140.837L150.301 122L195.288 82.1965Z" fill="#F8C437"/>
<circle cx="152.305" cy="86" r="7.00791" fill="black"/>
<circle cx="190.391" cy="114" r="7.00791" fill="#F8C437"/>
<circle cx="216.45" cy="114" r="7.00791" fill="#F8C437"/>
<circle cx="241.507" cy="114" r="7.00791" fill="#F8C437"/>
<path d="M221.825 144.846C216.768 160.678 206.601 174.385 192.918 183.818C179.234 193.252 162.808 197.878 146.212 196.973C129.617 196.068 113.791 189.683 101.214 178.817C88.6374 167.952 80.0213 153.221 76.7159 136.933C73.4106 120.645 75.6028 103.72 82.949 88.8118C90.2952 73.9035 102.38 61.8538 117.31 54.5512C132.24 47.2487 149.171 45.1061 165.449 48.4592C181.727 51.8122 196.433 60.4715 207.262 73.0798L201.39 78.1223C191.678 66.8136 178.488 59.0469 163.888 56.0394C149.287 53.032 134.102 54.9538 120.711 61.5036C107.32 68.0534 96.4804 78.861 89.8913 92.2327C83.3023 105.604 81.3361 120.784 84.3008 135.394C87.2654 150.003 94.9934 163.215 106.274 172.961C117.554 182.706 131.749 188.434 146.634 189.245C161.518 190.057 176.252 185.907 188.525 177.447C200.798 168.986 209.917 156.692 214.453 142.492L221.825 144.846Z" fill="#176AA2"/>
<path d="M85.2755 47.6805C83.0119 43.1513 84.9314 37.6535 89.522 35.5177L125.031 18.9969C129.431 16.9499 134.668 18.7568 136.869 23.0817L149.299 47.5L139.25 47.9359C138.272 47.9784 137.307 48.1798 136.394 48.5324L122.238 54L108.43 60.429C107.617 60.8075 106.865 61.3054 106.2 61.9061L96.6798 70.5L85.2755 47.6805Z" fill="#176AA2"/>
<circle cx="102.192" cy="47" r="6.00678" fill="#D9D9D9"/>
<circle cx="127.249" cy="37" r="6.00678" fill="#D9D9D9"/>
<circle cx="96.6799" cy="8.50961" r="8.50961" fill="#176AA2"/>
<path d="M84.9093 53.2304C83.9373 51.2421 84.7627 48.8452 86.7527 47.8768V47.8768L94.6613 64.0551V64.0551C92.6712 65.0235 90.27 64.1967 89.298 62.2084L84.9093 53.2304Z" fill="#176AA2"/>
<rect width="6.01097" height="19.0083" transform="matrix(0.899184 -0.437571 0.439172 0.898403 95.1765 13.6302)" fill="#176AA2"/>
<path d="M228.743 209.5L229.524 204.812C229.758 203.536 230.24 202.254 230.969 200.965C231.698 199.676 232.551 198.484 233.528 197.391C234.504 196.297 235.461 195.411 236.399 194.734L240.461 197C239.589 198.133 238.86 199.318 238.274 200.555C237.701 201.792 237.284 203.211 237.024 204.812L236.243 209.5H228.743ZM238.518 237L239.807 229.188L256.799 216.844C257.932 216.023 258.909 215.255 259.729 214.539C260.562 213.81 261.233 213.061 261.741 212.293C262.249 211.525 262.581 210.672 262.737 209.734C262.906 208.706 262.828 207.827 262.502 207.098C262.19 206.355 261.682 205.789 260.979 205.398C260.276 205.008 259.43 204.812 258.44 204.812C257.437 204.812 256.519 205.014 255.686 205.418C254.853 205.822 254.156 206.414 253.596 207.195C253.049 207.977 252.685 208.927 252.502 210.047H242.19C242.659 207.234 243.694 204.812 245.295 202.781C246.91 200.75 248.954 199.188 251.428 198.094C253.915 197 256.708 196.453 259.807 196.453C263.01 196.453 265.706 196.967 267.893 197.996C270.081 199.012 271.663 200.444 272.639 202.293C273.629 204.142 273.909 206.31 273.479 208.797C273.219 210.333 272.639 211.857 271.741 213.367C270.855 214.878 269.43 216.557 267.463 218.406C265.51 220.242 262.802 222.43 259.338 224.969L255.081 228.094L255.042 228.328H270.667L269.221 237H238.518ZM291.184 237.547C288.788 237.547 286.581 237.163 284.563 236.395C282.545 235.626 280.846 234.422 279.465 232.781C278.085 231.128 277.141 228.992 276.633 226.375C276.125 223.758 276.184 220.607 276.809 216.922C277.343 213.732 278.222 210.88 279.446 208.367C280.67 205.841 282.174 203.693 283.958 201.922C285.741 200.138 287.753 198.784 289.993 197.859C292.232 196.922 294.635 196.453 297.2 196.453C300.168 196.453 302.701 197.013 304.797 198.133C306.907 199.24 308.495 200.737 309.563 202.625C310.631 204.5 311.093 206.583 310.95 208.875H300.403C300.403 207.716 300.019 206.896 299.25 206.414C298.482 205.919 297.564 205.672 296.497 205.672C294.14 205.672 292.206 206.714 290.696 208.797C289.185 210.867 288.124 213.523 287.512 216.766L287.825 216.219C288.541 214.995 289.465 213.966 290.598 213.133C291.744 212.299 293.007 211.668 294.387 211.238C295.78 210.809 297.213 210.594 298.684 210.594C301.171 210.594 303.261 211.167 304.954 212.312C306.646 213.458 307.851 215.027 308.567 217.02C309.283 219.012 309.426 221.271 308.997 223.797C308.541 226.583 307.486 229.005 305.833 231.062C304.179 233.12 302.089 234.715 299.563 235.848C297.037 236.98 294.244 237.547 291.184 237.547ZM291.575 229.344C292.734 229.344 293.814 229.077 294.817 228.543C295.833 227.996 296.679 227.254 297.356 226.316C298.033 225.366 298.45 224.292 298.606 223.094C298.762 222.078 298.684 221.186 298.372 220.418C298.072 219.637 297.577 219.031 296.887 218.602C296.197 218.159 295.338 217.938 294.309 217.938C293.463 217.938 292.649 218.094 291.868 218.406C291.086 218.719 290.377 219.155 289.739 219.715C289.101 220.275 288.567 220.939 288.137 221.707C287.708 222.462 287.421 223.289 287.278 224.187C287.135 225.242 287.219 226.154 287.532 226.922C287.844 227.69 288.346 228.289 289.036 228.719C289.739 229.135 290.585 229.344 291.575 229.344Z" fill="#176AA2"/>
<path d="M232.743 209.5L233.524 204.812C233.758 203.536 234.24 202.254 234.969 200.965C235.698 199.676 236.551 198.484 237.528 197.391C238.504 196.297 239.461 195.411 240.399 194.734L244.461 197C243.589 198.133 242.86 199.318 242.274 200.555C241.701 201.792 241.284 203.211 241.024 204.812L240.243 209.5H232.743ZM242.518 237L243.807 229.188L260.799 216.844C261.932 216.023 262.909 215.255 263.729 214.539C264.562 213.81 265.233 213.061 265.741 212.293C266.249 211.525 266.581 210.672 266.737 209.734C266.906 208.706 266.828 207.827 266.502 207.098C266.19 206.355 265.682 205.789 264.979 205.398C264.276 205.008 263.43 204.812 262.44 204.812C261.437 204.812 260.519 205.014 259.686 205.418C258.853 205.822 258.156 206.414 257.596 207.195C257.049 207.977 256.685 208.927 256.502 210.047H246.19C246.659 207.234 247.694 204.812 249.295 202.781C250.91 200.75 252.954 199.188 255.428 198.094C257.915 197 260.708 196.453 263.807 196.453C267.01 196.453 269.706 196.967 271.893 197.996C274.081 199.012 275.663 200.444 276.639 202.293C277.629 204.142 277.909 206.31 277.479 208.797C277.219 210.333 276.639 211.857 275.741 213.367C274.855 214.878 273.43 216.557 271.463 218.406C269.51 220.242 266.802 222.43 263.338 224.969L259.081 228.094L259.042 228.328H274.667L273.221 237H242.518ZM295.184 237.547C292.788 237.547 290.581 237.163 288.563 236.395C286.545 235.626 284.846 234.422 283.465 232.781C282.085 231.128 281.141 228.992 280.633 226.375C280.125 223.758 280.184 220.607 280.809 216.922C281.343 213.732 282.222 210.88 283.446 208.367C284.67 205.841 286.174 203.693 287.958 201.922C289.741 200.138 291.753 198.784 293.993 197.859C296.232 196.922 298.635 196.453 301.2 196.453C304.168 196.453 306.701 197.013 308.797 198.133C310.907 199.24 312.495 200.737 313.563 202.625C314.631 204.5 315.093 206.583 314.95 208.875H304.403C304.403 207.716 304.019 206.896 303.25 206.414C302.482 205.919 301.564 205.672 300.497 205.672C298.14 205.672 296.206 206.714 294.696 208.797C293.185 210.867 292.124 213.523 291.512 216.766L291.825 216.219C292.541 214.995 293.465 213.966 294.598 213.133C295.744 212.299 297.007 211.668 298.387 211.238C299.78 210.809 301.213 210.594 302.684 210.594C305.171 210.594 307.261 211.167 308.954 212.312C310.646 213.458 311.851 215.027 312.567 217.02C313.283 219.012 313.426 221.271 312.997 223.797C312.541 226.583 311.486 229.005 309.833 231.062C308.179 233.12 306.089 234.715 303.563 235.848C301.037 236.98 298.244 237.547 295.184 237.547ZM295.575 229.344C296.734 229.344 297.814 229.077 298.817 228.543C299.833 227.996 300.679 227.254 301.356 226.316C302.033 225.366 302.45 224.292 302.606 223.094C302.762 222.078 302.684 221.186 302.372 220.418C302.072 219.637 301.577 219.031 300.887 218.602C300.197 218.159 299.338 217.938 298.309 217.938C297.463 217.938 296.649 218.094 295.868 218.406C295.086 218.719 294.377 219.155 293.739 219.715C293.101 220.275 292.567 220.939 292.137 221.707C291.708 222.462 291.421 223.289 291.278 224.187C291.135 225.242 291.219 226.154 291.532 226.922C291.844 227.69 292.346 228.289 293.036 228.719C293.739 229.135 294.585 229.344 295.575 229.344Z" fill="#F8C437"/>
<path d="M25.6204 238V212.545H34.2212C36.2099 212.545 37.8422 212.885 39.1182 213.565C40.3943 214.236 41.3389 215.16 41.952 216.336C42.5652 217.513 42.8718 218.851 42.8718 220.351C42.8718 221.851 42.5652 223.181 41.952 224.341C41.3389 225.501 40.3984 226.412 39.1307 227.075C37.8629 227.73 36.243 228.057 34.2709 228.057H27.3107V225.273H34.1715C35.5304 225.273 36.6242 225.074 37.4528 224.676C38.2896 224.278 38.8945 223.715 39.2674 222.986C39.6485 222.248 39.8391 221.37 39.8391 220.351C39.8391 219.332 39.6485 218.441 39.2674 217.679C38.8862 216.916 38.2772 216.328 37.4403 215.914C36.6034 215.491 35.4973 215.28 34.1218 215.28H28.7028V238H25.6204ZM37.6019 226.565L43.8661 238H40.2866L34.1218 226.565H37.6019ZM71.5853 225.273C71.5853 227.957 71.1006 230.277 70.1311 232.233C69.1617 234.188 67.8318 235.696 66.1414 236.757C64.4511 237.818 62.5205 238.348 60.3495 238.348C58.1786 238.348 56.248 237.818 54.5576 236.757C52.8673 235.696 51.5374 234.188 50.5679 232.233C49.5985 230.277 49.1137 227.957 49.1137 225.273C49.1137 222.588 49.5985 220.268 50.5679 218.312C51.5374 216.357 52.8673 214.849 54.5576 213.788C56.248 212.728 58.1786 212.197 60.3495 212.197C62.5205 212.197 64.4511 212.728 66.1414 213.788C67.8318 214.849 69.1617 216.357 70.1311 218.312C71.1006 220.268 71.5853 222.588 71.5853 225.273ZM68.6024 225.273C68.6024 223.069 68.2337 221.208 67.4962 219.692C66.767 218.176 65.7769 217.028 64.5257 216.249C63.2828 215.47 61.8907 215.081 60.3495 215.081C58.8084 215.081 57.4122 215.47 56.161 216.249C54.9181 217.028 53.9279 218.176 53.1905 219.692C52.4613 221.208 52.0967 223.069 52.0967 225.273C52.0967 227.477 52.4613 229.337 53.1905 230.853C53.9279 232.37 54.9181 233.517 56.161 234.296C57.4122 235.075 58.8084 235.464 60.3495 235.464C61.8907 235.464 63.2828 235.075 64.5257 234.296C65.7769 233.517 66.767 232.37 67.4962 230.853C68.2337 229.337 68.6024 227.477 68.6024 225.273ZM78.8682 238V212.545H87.7674C89.5406 212.545 91.0031 212.852 92.1548 213.465C93.3066 214.07 94.1642 214.886 94.7276 215.914C95.2911 216.933 95.5728 218.064 95.5728 219.307C95.5728 220.401 95.3781 221.304 94.9886 222.016C94.6075 222.729 94.102 223.292 93.4723 223.707C92.8508 224.121 92.1755 224.428 91.4464 224.626V224.875C92.2252 224.925 93.0083 225.198 93.7954 225.695C94.5826 226.192 95.2413 226.905 95.7716 227.833C96.3019 228.761 96.5671 229.896 96.5671 231.239C96.5671 232.515 96.2771 233.662 95.6971 234.681C95.117 235.701 94.2014 236.509 92.9503 237.105C91.6991 237.702 90.0709 238 88.0657 238H78.8682ZM81.9506 235.266H88.0657C90.0792 235.266 91.5085 234.876 92.3537 234.097C93.2071 233.31 93.6339 232.357 93.6339 231.239C93.6339 230.377 93.4143 229.581 92.9751 228.852C92.536 228.115 91.9104 227.527 91.0983 227.087C90.2863 226.64 89.3251 226.416 88.2148 226.416H81.9506V235.266ZM81.9506 223.732H87.6679C88.596 223.732 89.4329 223.549 90.1786 223.185C90.9326 222.82 91.5292 222.306 91.9684 221.643C92.4158 220.981 92.6395 220.202 92.6395 219.307C92.6395 218.188 92.2501 217.239 91.4712 216.461C90.6923 215.673 89.4577 215.28 87.7674 215.28H81.9506V223.732ZM125.209 225.273C125.209 227.957 124.724 230.277 123.755 232.233C122.786 234.188 121.456 235.696 119.765 236.757C118.075 237.818 116.144 238.348 113.973 238.348C111.802 238.348 109.872 237.818 108.181 236.757C106.491 235.696 105.161 234.188 104.192 232.233C103.222 230.277 102.738 227.957 102.738 225.273C102.738 222.588 103.222 220.268 104.192 218.312C105.161 216.357 106.491 214.849 108.181 213.788C109.872 212.728 111.802 212.197 113.973 212.197C116.144 212.197 118.075 212.728 119.765 213.788C121.456 214.849 122.786 216.357 123.755 218.312C124.724 220.268 125.209 222.588 125.209 225.273ZM122.226 225.273C122.226 223.069 121.857 221.208 121.12 219.692C120.391 218.176 119.401 217.028 118.15 216.249C116.907 215.47 115.515 215.081 113.973 215.081C112.432 215.081 111.036 215.47 109.785 216.249C108.542 217.028 107.552 218.176 106.814 219.692C106.085 221.208 105.721 223.069 105.721 225.273C105.721 227.477 106.085 229.337 106.814 230.853C107.552 232.37 108.542 233.517 109.785 234.296C111.036 235.075 112.432 235.464 113.973 235.464C115.515 235.464 116.907 235.075 118.15 234.296C119.401 233.517 120.391 232.37 121.12 230.853C121.857 229.337 122.226 227.477 122.226 225.273ZM146.413 218.909C146.263 217.65 145.658 216.672 144.598 215.976C143.537 215.28 142.236 214.932 140.695 214.932C139.568 214.932 138.582 215.114 137.737 215.479C136.9 215.843 136.246 216.345 135.773 216.983C135.309 217.621 135.077 218.346 135.077 219.158C135.077 219.837 135.239 220.421 135.562 220.91C135.893 221.391 136.316 221.793 136.83 222.116C137.343 222.431 137.882 222.692 138.446 222.899C139.009 223.098 139.527 223.259 139.999 223.384L142.584 224.08C143.247 224.254 143.985 224.494 144.797 224.8C145.617 225.107 146.4 225.525 147.146 226.056C147.9 226.578 148.521 227.249 149.01 228.069C149.499 228.89 149.743 229.896 149.743 231.089C149.743 232.465 149.383 233.708 148.662 234.818C147.95 235.929 146.906 236.811 145.53 237.466C144.163 238.12 142.502 238.447 140.546 238.447C138.723 238.447 137.145 238.153 135.811 237.565C134.485 236.977 133.441 236.156 132.678 235.104C131.924 234.052 131.498 232.83 131.398 231.438H134.58C134.663 232.399 134.986 233.194 135.55 233.824C136.121 234.445 136.842 234.909 137.712 235.216C138.591 235.514 139.535 235.663 140.546 235.663C141.723 235.663 142.779 235.473 143.715 235.092C144.652 234.702 145.393 234.164 145.94 233.476C146.487 232.78 146.761 231.968 146.761 231.04C146.761 230.195 146.524 229.507 146.052 228.977C145.58 228.446 144.958 228.015 144.188 227.684C143.417 227.353 142.584 227.062 141.689 226.814L138.557 225.919C136.569 225.347 134.994 224.531 133.834 223.471C132.674 222.41 132.094 221.022 132.094 219.307C132.094 217.882 132.48 216.639 133.25 215.578C134.029 214.509 135.073 213.681 136.382 213.092C137.7 212.496 139.171 212.197 140.795 212.197C142.435 212.197 143.894 212.492 145.17 213.08C146.446 213.66 147.457 214.455 148.202 215.466C148.956 216.477 149.354 217.625 149.395 218.909H146.413ZM157.955 238H154.724L164.07 212.545H167.252L176.599 238H173.367L165.761 216.572H165.562L157.955 238ZM159.149 228.057H172.174V230.791H159.149V228.057ZM198.868 220.5C198.595 219.663 198.234 218.913 197.787 218.25C197.348 217.579 196.821 217.007 196.208 216.535C195.603 216.063 194.916 215.702 194.145 215.454C193.374 215.205 192.529 215.081 191.61 215.081C190.101 215.081 188.73 215.47 187.496 216.249C186.261 217.028 185.279 218.176 184.55 219.692C183.821 221.208 183.456 223.069 183.456 225.273C183.456 227.477 183.825 229.337 184.562 230.853C185.3 232.37 186.298 233.517 187.558 234.296C188.817 235.075 190.234 235.464 191.808 235.464C193.267 235.464 194.551 235.154 195.661 234.532C196.78 233.903 197.65 233.016 198.271 231.873C198.901 230.721 199.216 229.366 199.216 227.808L200.161 228.007H192.504V225.273H202.199V228.007C202.199 230.103 201.752 231.926 200.857 233.476C199.97 235.025 198.744 236.227 197.178 237.08C195.62 237.925 193.83 238.348 191.808 238.348C189.555 238.348 187.574 237.818 185.867 236.757C184.169 235.696 182.843 234.188 181.89 232.233C180.945 230.277 180.473 227.957 180.473 225.273C180.473 223.259 180.742 221.449 181.281 219.841C181.828 218.225 182.598 216.85 183.593 215.715C184.587 214.58 185.764 213.71 187.123 213.105C188.482 212.5 189.977 212.197 191.61 212.197C192.952 212.197 194.203 212.4 195.363 212.806C196.531 213.204 197.571 213.772 198.483 214.509C199.402 215.238 200.169 216.113 200.782 217.132C201.395 218.143 201.818 219.265 202.05 220.5H198.868ZM209.836 238H206.605L215.951 212.545H219.133L228.48 238H225.248L217.641 216.572H217.443L209.836 238ZM211.029 228.057H224.055V230.791H211.029V228.057Z" fill="#176AA2"/>
<path d="M24.1168 238V212.545H33.6623C35.6178 212.545 37.2584 212.885 38.5841 213.565C39.9182 214.244 40.9249 215.197 41.6044 216.423C42.2921 217.641 42.636 219.062 42.636 220.686C42.636 222.319 42.288 223.736 41.592 224.937C40.9042 226.13 39.8892 227.054 38.5469 227.709C37.2045 228.355 35.5556 228.678 33.6001 228.678H26.8015V224.85H32.9787C34.1221 224.85 35.0585 224.693 35.7876 224.378C36.5168 224.055 37.0554 223.587 37.4034 222.973C37.7597 222.352 37.9378 221.59 37.9378 220.686C37.9378 219.783 37.7597 219.013 37.4034 218.375C37.0471 217.728 36.5044 217.239 35.7752 216.908C35.046 216.568 34.1056 216.398 32.9538 216.398H28.728V238H24.1168ZM37.2667 226.466L43.5682 238H38.4226L32.2329 226.466H37.2667ZM70.6755 225.273C70.6755 228.015 70.1618 230.364 69.1343 232.32C68.1151 234.267 66.7231 235.759 64.9582 236.794C63.2016 237.83 61.2088 238.348 58.9798 238.348C56.7509 238.348 54.754 237.83 52.9891 236.794C51.2324 235.75 49.8404 234.255 48.8129 232.308C47.7938 230.352 47.2842 228.007 47.2842 225.273C47.2842 222.53 47.7938 220.185 48.8129 218.238C49.8404 216.282 51.2324 214.787 52.9891 213.751C54.754 212.715 56.7509 212.197 58.9798 212.197C61.2088 212.197 63.2016 212.715 64.9582 213.751C66.7231 214.787 68.1151 216.282 69.1343 218.238C70.1618 220.185 70.6755 222.53 70.6755 225.273ZM66.0395 225.273C66.0395 223.342 65.7371 221.714 65.1322 220.388C64.5356 219.054 63.707 218.047 62.6464 217.368C61.5858 216.68 60.3636 216.336 58.9798 216.336C57.5961 216.336 56.3739 216.68 55.3133 217.368C54.2527 218.047 53.4199 219.054 52.8151 220.388C52.2185 221.714 51.9202 223.342 51.9202 225.273C51.9202 227.203 52.2185 228.836 52.8151 230.17C53.4199 231.496 54.2527 232.502 55.3133 233.19C56.3739 233.869 57.5961 234.209 58.9798 234.209C60.3636 234.209 61.5858 233.869 62.6464 233.19C63.707 232.502 64.5356 231.496 65.1322 230.17C65.7371 228.836 66.0395 227.203 66.0395 225.273ZM76.085 238V212.545H85.8293C87.6688 212.545 89.1975 212.835 90.4156 213.415C91.6419 213.987 92.5575 214.77 93.1624 215.765C93.7755 216.759 94.0821 217.886 94.0821 219.145C94.0821 220.181 93.8833 221.068 93.4855 221.805C93.0878 222.534 92.5534 223.127 91.8822 223.582C91.211 224.038 90.4612 224.365 89.6326 224.564V224.813C90.5357 224.863 91.4016 225.14 92.2302 225.646C93.0671 226.143 93.7507 226.847 94.281 227.759C94.8113 228.67 95.0764 229.772 95.0764 231.065C95.0764 232.382 94.7574 233.567 94.1194 234.619C93.4814 235.663 92.5202 236.488 91.2359 237.093C89.9516 237.698 88.3358 238 86.3886 238H76.085ZM80.6961 234.147H85.6553C87.3291 234.147 88.5347 233.828 89.2721 233.19C90.0179 232.544 90.3907 231.715 90.3907 230.704C90.3907 229.95 90.2043 229.271 89.8314 228.666C89.4586 228.053 88.9282 227.572 88.2405 227.224C87.5528 226.868 86.7325 226.69 85.7796 226.69H80.6961V234.147ZM80.6961 223.371H85.2576C86.053 223.371 86.7697 223.226 87.4078 222.936C88.0458 222.638 88.5471 222.219 88.9117 221.681C89.2845 221.134 89.471 220.488 89.471 219.742C89.471 218.756 89.123 217.944 88.4269 217.306C87.7392 216.668 86.7159 216.349 85.357 216.349H80.6961V223.371ZM122.883 225.273C122.883 228.015 122.369 230.364 121.342 232.32C120.323 234.267 118.931 235.759 117.166 236.794C115.409 237.83 113.416 238.348 111.187 238.348C108.958 238.348 106.961 237.83 105.196 236.794C103.44 235.75 102.048 234.255 101.02 232.308C100.001 230.352 99.4916 228.007 99.4916 225.273C99.4916 222.53 100.001 220.185 101.02 218.238C102.048 216.282 103.44 214.787 105.196 213.751C106.961 212.715 108.958 212.197 111.187 212.197C113.416 212.197 115.409 212.715 117.166 213.751C118.931 214.787 120.323 216.282 121.342 218.238C122.369 220.185 122.883 222.53 122.883 225.273ZM118.247 225.273C118.247 223.342 117.944 221.714 117.34 220.388C116.743 219.054 115.914 218.047 114.854 217.368C113.793 216.68 112.571 216.336 111.187 216.336C109.804 216.336 108.581 216.68 107.521 217.368C106.46 218.047 105.627 219.054 105.022 220.388C104.426 221.714 104.128 223.342 104.128 225.273C104.128 227.203 104.426 228.836 105.022 230.17C105.627 231.496 106.46 232.502 107.521 233.19C108.581 233.869 109.804 234.209 111.187 234.209C112.571 234.209 113.793 233.869 114.854 233.19C115.914 232.502 116.743 231.496 117.34 230.17C117.944 228.836 118.247 227.203 118.247 225.273ZM142.126 219.543C142.01 218.458 141.521 217.612 140.659 217.007C139.806 216.403 138.695 216.1 137.328 216.1C136.367 216.1 135.543 216.245 134.855 216.535C134.167 216.825 133.641 217.219 133.276 217.716C132.912 218.213 132.725 218.781 132.717 219.419C132.717 219.949 132.837 220.409 133.078 220.798C133.326 221.188 133.662 221.519 134.084 221.793C134.507 222.058 134.975 222.281 135.489 222.464C136.003 222.646 136.52 222.799 137.042 222.924L139.429 223.52C140.39 223.744 141.314 224.046 142.2 224.428C143.095 224.809 143.895 225.289 144.599 225.869C145.312 226.449 145.875 227.15 146.29 227.97C146.704 228.79 146.911 229.751 146.911 230.853C146.911 232.345 146.53 233.658 145.768 234.793C145.005 235.92 143.903 236.803 142.461 237.441C141.028 238.07 139.292 238.385 137.254 238.385C135.273 238.385 133.554 238.079 132.096 237.466C130.646 236.852 129.51 235.958 128.69 234.781C127.878 233.604 127.439 232.171 127.373 230.48H131.909C131.976 231.367 132.249 232.105 132.73 232.693C133.21 233.281 133.836 233.72 134.606 234.01C135.385 234.3 136.255 234.445 137.216 234.445C138.219 234.445 139.097 234.296 139.851 233.998C140.614 233.691 141.21 233.269 141.641 232.73C142.072 232.183 142.292 231.545 142.3 230.816C142.292 230.153 142.097 229.606 141.716 229.175C141.335 228.736 140.8 228.372 140.112 228.082C139.433 227.783 138.637 227.518 137.726 227.286L134.83 226.54C132.734 226.002 131.076 225.186 129.858 224.092C128.649 222.99 128.044 221.527 128.044 219.705C128.044 218.205 128.45 216.891 129.262 215.765C130.082 214.638 131.197 213.763 132.605 213.142C134.014 212.512 135.609 212.197 137.39 212.197C139.197 212.197 140.779 212.512 142.138 213.142C143.505 213.763 144.578 214.629 145.357 215.74C146.136 216.842 146.538 218.109 146.563 219.543H142.126ZM154.931 238H150.009L158.97 212.545H164.662L173.636 238H168.714L161.916 217.766H161.717L154.931 238ZM155.092 228.02H168.515V231.723H155.092V228.02ZM193.895 220.674C193.688 220.003 193.402 219.402 193.038 218.872C192.681 218.333 192.25 217.873 191.745 217.492C191.248 217.111 190.676 216.825 190.03 216.635C189.383 216.436 188.679 216.336 187.917 216.336C186.55 216.336 185.332 216.68 184.263 217.368C183.194 218.056 182.353 219.067 181.74 220.401C181.135 221.726 180.832 223.342 180.832 225.248C180.832 227.17 181.135 228.798 181.74 230.132C182.344 231.467 183.186 232.482 184.263 233.178C185.34 233.865 186.591 234.209 188.016 234.209C189.309 234.209 190.427 233.961 191.372 233.463C192.325 232.966 193.058 232.262 193.572 231.35C194.086 230.431 194.343 229.354 194.343 228.119L195.387 228.281H188.476V224.676H198.805V227.734C198.805 229.913 198.341 231.798 197.413 233.389C196.485 234.98 195.208 236.206 193.584 237.068C191.96 237.921 190.096 238.348 187.991 238.348C185.646 238.348 183.587 237.822 181.814 236.77C180.049 235.709 178.67 234.205 177.675 232.258C176.689 230.302 176.196 227.982 176.196 225.298C176.196 223.243 176.486 221.407 177.066 219.792C177.655 218.176 178.475 216.804 179.527 215.678C180.58 214.542 181.814 213.681 183.231 213.092C184.648 212.496 186.189 212.197 187.855 212.197C189.263 212.197 190.577 212.405 191.795 212.819C193.013 213.225 194.094 213.805 195.039 214.559C195.992 215.313 196.775 216.208 197.388 217.244C198.001 218.279 198.403 219.423 198.593 220.674H193.895ZM206.796 238H201.874L210.836 212.545H216.528L225.502 238H220.58L213.781 217.766H213.582L206.796 238ZM206.958 228.02H220.381V231.723H206.958V228.02Z" fill="#F8C437"/>
</svg>
