<svg xmlns="http://www.w3.org/2000/svg" width="322" height="249" viewBox="0 0 322 249" fill="none">
<path d="M195.288 82.1965C186.519 72.2859 174.723 65.5482 161.732 63.0299C148.741 60.5116 135.282 62.3536 123.445 68.2699C111.609 74.1863 102.057 83.8457 96.2734 95.748C90.4901 107.65 88.799 121.129 91.4627 134.091C94.1264 147.053 100.996 158.773 111.004 167.43C121.012 176.087 133.599 181.197 146.81 181.966C160.021 182.735 173.115 179.121 184.061 171.683C195.006 164.246 203.189 153.403 207.339 140.837L150.301 122L195.288 82.1965Z" fill="#F8C437"/>
<circle cx="152.305" cy="86" r="7.00791" fill="black"/>
<circle cx="190.391" cy="114" r="7.00791" fill="#F8C437"/>
<circle cx="216.45" cy="114" r="7.00791" fill="#F8C437"/>
<circle cx="241.507" cy="114" r="7.00791" fill="#F8C437"/>
<path d="M221.825 144.846C216.768 160.678 206.601 174.385 192.918 183.818C179.234 193.252 162.808 197.878 146.212 196.973C129.617 196.068 113.791 189.683 101.214 178.817C88.6374 167.952 80.0213 153.221 76.7159 136.933C73.4106 120.645 75.6028 103.72 82.949 88.8118C90.2952 73.9035 102.38 61.8538 117.31 54.5512C132.24 47.2487 149.171 45.1061 165.449 48.4592C181.727 51.8122 196.433 60.4715 207.262 73.0798L201.39 78.1223C191.678 66.8136 178.488 59.0469 163.888 56.0394C149.287 53.032 134.102 54.9538 120.711 61.5036C107.32 68.0534 96.4804 78.861 89.8913 92.2327C83.3023 105.604 81.3361 120.784 84.3008 135.394C87.2654 150.003 94.9934 163.215 106.274 172.961C117.554 182.706 131.749 188.434 146.634 189.245C161.518 190.057 176.252 185.907 188.525 177.447C200.798 168.986 209.917 156.692 214.453 142.492L221.825 144.846Z" fill="#176AA2"/>
<path d="M85.2755 47.6805C83.0119 43.1513 84.9314 37.6535 89.522 35.5177L125.031 18.9969C129.431 16.9499 134.668 18.7568 136.869 23.0817L149.299 47.5L139.25 47.9359C138.272 47.9784 137.307 48.1798 136.394 48.5324L122.238 54L108.43 60.429C107.617 60.8075 106.865 61.3054 106.2 61.9061L96.6798 70.5L85.2755 47.6805Z" fill="#176AA2"/>
<circle cx="102.192" cy="47" r="6.00678" fill="#D9D9D9"/>
<circle cx="127.249" cy="37" r="6.00678" fill="#D9D9D9"/>
<circle cx="96.6799" cy="8.50961" r="8.50961" fill="#176AA2"/>
<path d="M84.9093 53.2304C83.9373 51.2421 84.7627 48.8452 86.7527 47.8768L94.6613 64.0551C92.6712 65.0235 90.27 64.1967 89.298 62.2084L84.9093 53.2304Z" fill="#176AA2"/>
<rect width="6.01097" height="19.0083" transform="matrix(0.899184 -0.437571 0.439172 0.898403 95.1765 13.6302)" fill="#176AA2"/>
<path d="M227.743 210.5L228.524 205.812C228.758 204.536 229.24 203.254 229.969 201.965C230.698 200.676 231.551 199.484 232.528 198.391C233.504 197.297 234.461 196.411 235.399 195.734L239.461 198C238.589 199.133 237.86 200.318 237.274 201.555C236.701 202.792 236.284 204.211 236.024 205.812L235.243 210.5H227.743ZM237.518 238L238.807 230.188L255.799 217.844C256.932 217.023 257.909 216.255 258.729 215.539C259.562 214.81 260.233 214.061 260.741 213.293C261.249 212.525 261.581 211.672 261.737 210.734C261.906 209.706 261.828 208.827 261.502 208.098C261.19 207.355 260.682 206.789 259.979 206.398C259.276 206.008 258.43 205.812 257.44 205.812C256.437 205.812 255.519 206.014 254.686 206.418C253.853 206.822 253.156 207.414 252.596 208.195C252.049 208.977 251.685 209.927 251.502 211.047H241.19C241.659 208.234 242.694 205.812 244.295 203.781C245.91 201.75 247.954 200.188 250.428 199.094C252.915 198 255.708 197.453 258.807 197.453C262.01 197.453 264.706 197.967 266.893 198.996C269.081 200.012 270.663 201.444 271.639 203.293C272.629 205.142 272.909 207.31 272.479 209.797C272.219 211.333 271.639 212.857 270.741 214.367C269.855 215.878 268.43 217.557 266.463 219.406C264.51 221.242 261.802 223.43 258.338 225.969L254.081 229.094L254.042 229.328H269.667L268.221 238H237.518ZM290.184 238.547C287.788 238.547 285.581 238.163 283.563 237.395C281.545 236.626 279.846 235.422 278.465 233.781C277.085 232.128 276.141 229.992 275.633 227.375C275.125 224.758 275.184 221.607 275.809 217.922C276.343 214.732 277.222 211.88 278.446 209.367C279.67 206.841 281.174 204.693 282.958 202.922C284.741 201.138 286.753 199.784 288.993 198.859C291.232 197.922 293.635 197.453 296.2 197.453C299.168 197.453 301.701 198.013 303.797 199.133C305.907 200.24 307.495 201.737 308.563 203.625C309.631 205.5 310.093 207.583 309.95 209.875H299.403C299.403 208.716 299.019 207.896 298.25 207.414C297.482 206.919 296.564 206.672 295.497 206.672C293.14 206.672 291.206 207.714 289.696 209.797C288.185 211.867 287.124 214.523 286.512 217.766L286.825 217.219C287.541 215.995 288.465 214.966 289.598 214.133C290.744 213.299 292.007 212.668 293.387 212.238C294.78 211.809 296.213 211.594 297.684 211.594C300.171 211.594 302.261 212.167 303.954 213.312C305.646 214.458 306.851 216.027 307.567 218.02C308.283 220.012 308.426 222.271 307.997 224.797C307.541 227.583 306.486 230.005 304.833 232.062C303.179 234.12 301.089 235.715 298.563 236.848C296.037 237.98 293.244 238.547 290.184 238.547ZM290.575 230.344C291.734 230.344 292.814 230.077 293.817 229.543C294.833 228.996 295.679 228.254 296.356 227.316C297.033 226.366 297.45 225.292 297.606 224.094C297.762 223.078 297.684 222.186 297.372 221.418C297.072 220.637 296.577 220.031 295.887 219.602C295.197 219.159 294.338 218.938 293.309 218.938C292.463 218.938 291.649 219.094 290.868 219.406C290.086 219.719 289.377 220.155 288.739 220.715C288.101 221.275 287.567 221.939 287.137 222.707C286.708 223.462 286.421 224.289 286.278 225.187C286.135 226.242 286.219 227.154 286.532 227.922C286.844 228.69 287.346 229.289 288.036 229.719C288.739 230.135 289.585 230.344 290.575 230.344Z" fill="#176AA2"/>
<path d="M231.743 210.5L232.524 205.812C232.758 204.536 233.24 203.254 233.969 201.965C234.698 200.676 235.551 199.484 236.528 198.391C237.504 197.297 238.461 196.411 239.399 195.734L243.461 198C242.589 199.133 241.86 200.318 241.274 201.555C240.701 202.792 240.284 204.211 240.024 205.812L239.243 210.5H231.743ZM241.518 238L242.807 230.188L259.799 217.844C260.932 217.023 261.909 216.255 262.729 215.539C263.562 214.81 264.233 214.061 264.741 213.293C265.249 212.525 265.581 211.672 265.737 210.734C265.906 209.706 265.828 208.827 265.502 208.098C265.19 207.355 264.682 206.789 263.979 206.398C263.276 206.008 262.43 205.812 261.44 205.812C260.437 205.812 259.519 206.014 258.686 206.418C257.853 206.822 257.156 207.414 256.596 208.195C256.049 208.977 255.685 209.927 255.502 211.047H245.19C245.659 208.234 246.694 205.812 248.295 203.781C249.91 201.75 251.954 200.188 254.428 199.094C256.915 198 259.708 197.453 262.807 197.453C266.01 197.453 268.706 197.967 270.893 198.996C273.081 200.012 274.663 201.444 275.639 203.293C276.629 205.142 276.909 207.31 276.479 209.797C276.219 211.333 275.639 212.857 274.741 214.367C273.855 215.878 272.43 217.557 270.463 219.406C268.51 221.242 265.802 223.43 262.338 225.969L258.081 229.094L258.042 229.328H273.667L272.221 238H241.518ZM294.184 238.547C291.788 238.547 289.581 238.163 287.563 237.395C285.545 236.626 283.846 235.422 282.465 233.781C281.085 232.128 280.141 229.992 279.633 227.375C279.125 224.758 279.184 221.607 279.809 217.922C280.343 214.732 281.222 211.88 282.446 209.367C283.67 206.841 285.174 204.693 286.958 202.922C288.741 201.138 290.753 199.784 292.993 198.859C295.232 197.922 297.635 197.453 300.2 197.453C303.168 197.453 305.701 198.013 307.797 199.133C309.907 200.24 311.495 201.737 312.563 203.625C313.631 205.5 314.093 207.583 313.95 209.875H303.403C303.403 208.716 303.019 207.896 302.25 207.414C301.482 206.919 300.564 206.672 299.497 206.672C297.14 206.672 295.206 207.714 293.696 209.797C292.185 211.867 291.124 214.523 290.512 217.766L290.825 217.219C291.541 215.995 292.465 214.966 293.598 214.133C294.744 213.299 296.007 212.668 297.387 212.238C298.78 211.809 300.213 211.594 301.684 211.594C304.171 211.594 306.261 212.167 307.954 213.312C309.646 214.458 310.851 216.027 311.567 218.02C312.283 220.012 312.426 222.271 311.997 224.797C311.541 227.583 310.486 230.005 308.833 232.062C307.179 234.12 305.089 235.715 302.563 236.848C300.037 237.98 297.244 238.547 294.184 238.547ZM294.575 230.344C295.734 230.344 296.814 230.077 297.817 229.543C298.833 228.996 299.679 228.254 300.356 227.316C301.033 226.366 301.45 225.292 301.606 224.094C301.762 223.078 301.684 222.186 301.372 221.418C301.072 220.637 300.577 220.031 299.887 219.602C299.197 219.159 298.338 218.938 297.309 218.938C296.463 218.938 295.649 219.094 294.868 219.406C294.086 219.719 293.377 220.155 292.739 220.715C292.101 221.275 291.567 221.939 291.137 222.707C290.708 223.462 290.421 224.289 290.278 225.187C290.135 226.242 290.219 227.154 290.532 227.922C290.844 228.69 291.346 229.289 292.036 229.719C292.739 230.135 293.585 230.344 294.575 230.344Z" fill="#F8C437"/>
<path d="M25.6204 238V212.545H34.2212C36.2099 212.545 37.8422 212.885 39.1182 213.565C40.3943 214.236 41.3389 215.16 41.952 216.336C42.5652 217.513 42.8718 218.851 42.8718 220.351C42.8718 221.851 42.5652 223.181 41.952 224.341C41.3389 225.501 40.3984 226.412 39.1307 227.075C37.8629 227.73 36.243 228.057 34.2709 228.057H27.3107V225.273H34.1715C35.5304 225.273 36.6242 225.074 37.4528 224.676C38.2896 224.278 38.8945 223.715 39.2674 222.986C39.6485 222.248 39.8391 221.37 39.8391 220.351C39.8391 219.332 39.6485 218.441 39.2674 217.679C38.8862 216.916 38.2772 216.328 37.4403 215.914C36.6034 215.491 35.4973 215.28 34.1218 215.28H28.7028V238H25.6204ZM37.6019 226.565L43.8661 238H40.2866L34.1218 226.565H37.6019ZM71.5853 225.273C71.5853 227.957 71.1006 230.277 70.1311 232.233C69.1617 234.188 67.8318 235.696 66.1414 236.757C64.4511 237.818 62.5205 238.348 60.3495 238.348C58.1786 238.348 56.248 237.818 54.5576 236.757C52.8673 235.696 51.5374 234.188 50.5679 232.233C49.5985 230.277 49.1137 227.957 49.1137 225.273C49.1137 222.588 49.5985 220.268 50.5679 218.312C51.5374 216.357 52.8673 214.849 54.5576 213.788C56.248 212.728 58.1786 212.197 60.3495 212.197C62.5205 212.197 64.4511 212.728 66.1414 213.788C67.8318 214.849 69.1617 216.357 70.1311 218.312C71.1006 220.268 71.5853 222.588 71.5853 225.273ZM68.6024 225.273C68.6024 223.069 68.2337 221.208 67.4962 219.692C66.767 218.176 65.7769 217.028 64.5257 216.249C63.2828 215.47 61.8907 215.081 60.3495 215.081C58.8084 215.081 57.4122 215.47 56.161 216.249C54.9181 217.028 53.9279 218.176 53.1905 219.692C52.4613 221.208 52.0967 223.069 52.0967 225.273C52.0967 227.477 52.4613 229.337 53.1905 230.853C53.9279 232.37 54.9181 233.517 56.161 234.296C57.4122 235.075 58.8084 235.464 60.3495 235.464C61.8907 235.464 63.2828 235.075 64.5257 234.296C65.7769 233.517 66.767 232.37 67.4962 230.853C68.2337 229.337 68.6024 227.477 68.6024 225.273ZM78.8682 238V212.545H87.7674C89.5406 212.545 91.0031 212.852 92.1548 213.465C93.3066 214.07 94.1642 214.886 94.7276 215.914C95.2911 216.933 95.5728 218.064 95.5728 219.307C95.5728 220.401 95.3781 221.304 94.9886 222.016C94.6075 222.729 94.102 223.292 93.4723 223.707C92.8508 224.121 92.1755 224.428 91.4464 224.626V224.875C92.2252 224.925 93.0083 225.198 93.7954 225.695C94.5826 226.192 95.2413 226.905 95.7716 227.833C96.3019 228.761 96.5671 229.896 96.5671 231.239C96.5671 232.515 96.2771 233.662 95.6971 234.681C95.117 235.701 94.2014 236.509 92.9503 237.105C91.6991 237.702 90.0709 238 88.0657 238H78.8682ZM81.9506 235.266H88.0657C90.0792 235.266 91.5085 234.876 92.3537 234.097C93.2071 233.31 93.6339 232.357 93.6339 231.239C93.6339 230.377 93.4143 229.581 92.9751 228.852C92.536 228.115 91.9104 227.527 91.0983 227.087C90.2863 226.64 89.3251 226.416 88.2148 226.416H81.9506V235.266ZM81.9506 223.732H87.6679C88.596 223.732 89.4329 223.549 90.1786 223.185C90.9326 222.82 91.5292 222.306 91.9684 221.643C92.4158 220.981 92.6395 220.202 92.6395 219.307C92.6395 218.188 92.2501 217.239 91.4712 216.461C90.6923 215.673 89.4577 215.28 87.7674 215.28H81.9506V223.732ZM125.209 225.273C125.209 227.957 124.724 230.277 123.755 232.233C122.786 234.188 121.456 235.696 119.765 236.757C118.075 237.818 116.144 238.348 113.973 238.348C111.802 238.348 109.872 237.818 108.181 236.757C106.491 235.696 105.161 234.188 104.192 232.233C103.222 230.277 102.738 227.957 102.738 225.273C102.738 222.588 103.222 220.268 104.192 218.312C105.161 216.357 106.491 214.849 108.181 213.788C109.872 212.728 111.802 212.197 113.973 212.197C116.144 212.197 118.075 212.728 119.765 213.788C121.456 214.849 122.786 216.357 123.755 218.312C124.724 220.268 125.209 222.588 125.209 225.273ZM122.226 225.273C122.226 223.069 121.857 221.208 121.12 219.692C120.391 218.176 119.401 217.028 118.15 216.249C116.907 215.47 115.515 215.081 113.973 215.081C112.432 215.081 111.036 215.47 109.785 216.249C108.542 217.028 107.552 218.176 106.814 219.692C106.085 221.208 105.721 223.069 105.721 225.273C105.721 227.477 106.085 229.337 106.814 230.853C107.552 232.37 108.542 233.517 109.785 234.296C111.036 235.075 112.432 235.464 113.973 235.464C115.515 235.464 116.907 235.075 118.15 234.296C119.401 233.517 120.391 232.37 121.12 230.853C121.857 229.337 122.226 227.477 122.226 225.273ZM146.413 218.909C146.263 217.65 145.658 216.672 144.598 215.976C143.537 215.28 142.236 214.932 140.695 214.932C139.568 214.932 138.582 215.114 137.737 215.479C136.9 215.843 136.246 216.345 135.773 216.983C135.309 217.621 135.077 218.346 135.077 219.158C135.077 219.837 135.239 220.421 135.562 220.91C135.893 221.391 136.316 221.793 136.83 222.116C137.343 222.431 137.882 222.692 138.446 222.899C139.009 223.098 139.527 223.259 139.999 223.384L142.584 224.08C143.247 224.254 143.985 224.494 144.797 224.8C145.617 225.107 146.4 225.525 147.146 226.056C147.9 226.578 148.521 227.249 149.01 228.069C149.499 228.89 149.743 229.896 149.743 231.089C149.743 232.465 149.383 233.708 148.662 234.818C147.95 235.929 146.906 236.811 145.53 237.466C144.163 238.12 142.502 238.447 140.546 238.447C138.723 238.447 137.145 238.153 135.811 237.565C134.485 236.977 133.441 236.156 132.678 235.104C131.924 234.052 131.498 232.83 131.398 231.438H134.58C134.663 232.399 134.986 233.194 135.55 233.824C136.121 234.445 136.842 234.909 137.712 235.216C138.591 235.514 139.535 235.663 140.546 235.663C141.723 235.663 142.779 235.473 143.715 235.092C144.652 234.702 145.393 234.164 145.94 233.476C146.487 232.78 146.761 231.968 146.761 231.04C146.761 230.195 146.524 229.507 146.052 228.977C145.58 228.446 144.958 228.015 144.188 227.684C143.417 227.353 142.584 227.062 141.689 226.814L138.557 225.919C136.569 225.347 134.994 224.531 133.834 223.471C132.674 222.41 132.094 221.022 132.094 219.307C132.094 217.882 132.48 216.639 133.25 215.578C134.029 214.509 135.073 213.681 136.382 213.092C137.7 212.496 139.171 212.197 140.795 212.197C142.435 212.197 143.894 212.492 145.17 213.08C146.446 213.66 147.457 214.455 148.202 215.466C148.956 216.477 149.354 217.625 149.395 218.909H146.413ZM157.955 238H154.724L164.07 212.545H167.252L176.599 238H173.367L165.761 216.572H165.562L157.955 238ZM159.149 228.057H172.174V230.791H159.149V228.057ZM198.868 220.5C198.595 219.663 198.234 218.913 197.787 218.25C197.348 217.579 196.821 217.007 196.208 216.535C195.603 216.063 194.916 215.702 194.145 215.454C193.374 215.205 192.529 215.081 191.61 215.081C190.101 215.081 188.73 215.47 187.496 216.249C186.261 217.028 185.279 218.176 184.55 219.692C183.821 221.208 183.456 223.069 183.456 225.273C183.456 227.477 183.825 229.337 184.562 230.853C185.3 232.37 186.298 233.517 187.558 234.296C188.817 235.075 190.234 235.464 191.808 235.464C193.267 235.464 194.551 235.154 195.661 234.532C196.78 233.903 197.65 233.016 198.271 231.873C198.901 230.721 199.216 229.366 199.216 227.808L200.161 228.007H192.504V225.273H202.199V228.007C202.199 230.103 201.752 231.926 200.857 233.476C199.97 235.025 198.744 236.227 197.178 237.08C195.62 237.925 193.83 238.348 191.808 238.348C189.555 238.348 187.574 237.818 185.867 236.757C184.169 235.696 182.843 234.188 181.89 232.233C180.945 230.277 180.473 227.957 180.473 225.273C180.473 223.259 180.742 221.449 181.281 219.841C181.828 218.225 182.598 216.85 183.593 215.715C184.587 214.58 185.764 213.71 187.123 213.105C188.482 212.5 189.977 212.197 191.61 212.197C192.952 212.197 194.203 212.4 195.363 212.806C196.531 213.204 197.571 213.772 198.483 214.509C199.402 215.238 200.169 216.113 200.782 217.132C201.395 218.143 201.818 219.265 202.05 220.5H198.868ZM209.836 238H206.605L215.951 212.545H219.133L228.48 238H225.248L217.641 216.572H217.443L209.836 238ZM211.029 228.057H224.055V230.791H211.029V228.057Z" fill="#176AA2"/>
<path d="M24.1168 238V212.545H33.6623C35.6178 212.545 37.2584 212.885 38.5841 213.565C39.9182 214.244 40.9249 215.197 41.6044 216.423C42.2921 217.641 42.636 219.062 42.636 220.686C42.636 222.319 42.288 223.736 41.592 224.937C40.9042 226.13 39.8892 227.054 38.5469 227.709C37.2045 228.355 35.5556 228.678 33.6001 228.678H26.8015V224.85H32.9787C34.1221 224.85 35.0585 224.693 35.7876 224.378C36.5168 224.055 37.0554 223.587 37.4034 222.973C37.7597 222.352 37.9378 221.59 37.9378 220.686C37.9378 219.783 37.7597 219.013 37.4034 218.375C37.0471 217.728 36.5044 217.239 35.7752 216.908C35.046 216.568 34.1056 216.398 32.9538 216.398H28.728V238H24.1168ZM37.2667 226.466L43.5682 238H38.4226L32.2329 226.466H37.2667ZM70.6755 225.273C70.6755 228.015 70.1618 230.364 69.1343 232.32C68.1151 234.267 66.7231 235.759 64.9582 236.794C63.2016 237.83 61.2088 238.348 58.9798 238.348C56.7509 238.348 54.754 237.83 52.9891 236.794C51.2324 235.75 49.8404 234.255 48.8129 232.308C47.7938 230.352 47.2842 228.007 47.2842 225.273C47.2842 222.53 47.7938 220.185 48.8129 218.238C49.8404 216.282 51.2324 214.787 52.9891 213.751C54.754 212.715 56.7509 212.197 58.9798 212.197C61.2088 212.197 63.2016 212.715 64.9582 213.751C66.7231 214.787 68.1151 216.282 69.1343 218.238C70.1618 220.185 70.6755 222.53 70.6755 225.273ZM66.0395 225.273C66.0395 223.342 65.7371 221.714 65.1322 220.388C64.5356 219.054 63.707 218.047 62.6464 217.368C61.5858 216.68 60.3636 216.336 58.9798 216.336C57.5961 216.336 56.3739 216.68 55.3133 217.368C54.2527 218.047 53.4199 219.054 52.8151 220.388C52.2185 221.714 51.9202 223.342 51.9202 225.273C51.9202 227.203 52.2185 228.836 52.8151 230.17C53.4199 231.496 54.2527 232.502 55.3133 233.19C56.3739 233.869 57.5961 234.209 58.9798 234.209C60.3636 234.209 61.5858 233.869 62.6464 233.19C63.707 232.502 64.5356 231.496 65.1322 230.17C65.7371 228.836 66.0395 227.203 66.0395 225.273ZM76.085 238V212.545H85.8293C87.6688 212.545 89.1975 212.835 90.4156 213.415C91.6419 213.987 92.5575 214.77 93.1624 215.765C93.7755 216.759 94.0821 217.886 94.0821 219.145C94.0821 220.181 93.8833 221.068 93.4855 221.805C93.0878 222.534 92.5534 223.127 91.8822 223.582C91.211 224.038 90.4612 224.365 89.6326 224.564V224.813C90.5357 224.863 91.4016 225.14 92.2302 225.646C93.0671 226.143 93.7507 226.847 94.281 227.759C94.8113 228.67 95.0764 229.772 95.0764 231.065C95.0764 232.382 94.7574 233.567 94.1194 234.619C93.4814 235.663 92.5202 236.488 91.2359 237.093C89.9516 237.698 88.3358 238 86.3886 238H76.085ZM80.6961 234.147H85.6553C87.3291 234.147 88.5347 233.828 89.2721 233.19C90.0179 232.544 90.3907 231.715 90.3907 230.704C90.3907 229.95 90.2043 229.271 89.8314 228.666C89.4586 228.053 88.9282 227.572 88.2405 227.224C87.5528 226.868 86.7325 226.69 85.7796 226.69H80.6961V234.147ZM80.6961 223.371H85.2576C86.053 223.371 86.7697 223.226 87.4078 222.936C88.0458 222.638 88.5471 222.219 88.9117 221.681C89.2845 221.134 89.471 220.488 89.471 219.742C89.471 218.756 89.123 217.944 88.4269 217.306C87.7392 216.668 86.7159 216.349 85.357 216.349H80.6961V223.371ZM122.883 225.273C122.883 228.015 122.369 230.364 121.342 232.32C120.323 234.267 118.931 235.759 117.166 236.794C115.409 237.83 113.416 238.348 111.187 238.348C108.958 238.348 106.961 237.83 105.196 236.794C103.44 235.75 102.048 234.255 101.02 232.308C100.001 230.352 99.4916 228.007 99.4916 225.273C99.4916 222.53 100.001 220.185 101.02 218.238C102.048 216.282 103.44 214.787 105.196 213.751C106.961 212.715 108.958 212.197 111.187 212.197C113.416 212.197 115.409 212.715 117.166 213.751C118.931 214.787 120.323 216.282 121.342 218.238C122.369 220.185 122.883 222.53 122.883 225.273ZM118.247 225.273C118.247 223.342 117.944 221.714 117.34 220.388C116.743 219.054 115.914 218.047 114.854 217.368C113.793 216.68 112.571 216.336 111.187 216.336C109.804 216.336 108.581 216.68 107.521 217.368C106.46 218.047 105.627 219.054 105.022 220.388C104.426 221.714 104.128 223.342 104.128 225.273C104.128 227.203 104.426 228.836 105.022 230.17C105.627 231.496 106.46 232.502 107.521 233.19C108.581 233.869 109.804 234.209 111.187 234.209C112.571 234.209 113.793 233.869 114.854 233.19C115.914 232.502 116.743 231.496 117.34 230.17C117.944 228.836 118.247 227.203 118.247 225.273ZM142.126 219.543C142.01 218.458 141.521 217.612 140.659 217.007C139.806 216.403 138.695 216.1 137.328 216.1C136.367 216.1 135.543 216.245 134.855 216.535C134.167 216.825 133.641 217.219 133.276 217.716C132.912 218.213 132.725 218.781 132.717 219.419C132.717 219.949 132.837 220.409 133.078 220.798C133.326 221.188 133.662 221.519 134.084 221.793C134.507 222.058 134.975 222.281 135.489 222.464C136.003 222.646 136.52 222.799 137.042 222.924L139.429 223.52C140.39 223.744 141.314 224.046 142.2 224.428C143.095 224.809 143.895 225.289 144.599 225.869C145.312 226.449 145.875 227.15 146.29 227.97C146.704 228.79 146.911 229.751 146.911 230.853C146.911 232.345 146.53 233.658 145.768 234.793C145.005 235.92 143.903 236.803 142.461 237.441C141.028 238.07 139.292 238.385 137.254 238.385C135.273 238.385 133.554 238.079 132.096 237.466C130.646 236.852 129.51 235.958 128.69 234.781C127.878 233.604 127.439 232.171 127.373 230.48H131.909C131.976 231.367 132.249 232.105 132.73 232.693C133.21 233.281 133.836 233.72 134.606 234.01C135.385 234.3 136.255 234.445 137.216 234.445C138.219 234.445 139.097 234.296 139.851 233.998C140.614 233.691 141.21 233.269 141.641 232.73C142.072 232.183 142.292 231.545 142.3 230.816C142.292 230.153 142.097 229.606 141.716 229.175C141.335 228.736 140.8 228.372 140.112 228.082C139.433 227.783 138.637 227.518 137.726 227.286L134.83 226.54C132.734 226.002 131.076 225.186 129.858 224.092C128.649 222.99 128.044 221.527 128.044 219.705C128.044 218.205 128.45 216.891 129.262 215.765C130.082 214.638 131.197 213.763 132.605 213.142C134.014 212.512 135.609 212.197 137.39 212.197C139.197 212.197 140.779 212.512 142.138 213.142C143.505 213.763 144.578 214.629 145.357 215.74C146.136 216.842 146.538 218.109 146.563 219.543H142.126ZM154.931 238H150.009L158.97 212.545H164.662L173.636 238H168.714L161.916 217.766H161.717L154.931 238ZM155.092 228.02H168.515V231.723H155.092V228.02ZM193.895 220.674C193.688 220.003 193.402 219.402 193.038 218.872C192.681 218.333 192.25 217.873 191.745 217.492C191.248 217.111 190.676 216.825 190.03 216.635C189.383 216.436 188.679 216.336 187.917 216.336C186.55 216.336 185.332 216.68 184.263 217.368C183.194 218.056 182.353 219.067 181.74 220.401C181.135 221.726 180.832 223.342 180.832 225.248C180.832 227.17 181.135 228.798 181.74 230.132C182.344 231.467 183.186 232.482 184.263 233.178C185.34 233.865 186.591 234.209 188.016 234.209C189.309 234.209 190.427 233.961 191.372 233.463C192.325 232.966 193.058 232.262 193.572 231.35C194.086 230.431 194.343 229.354 194.343 228.119L195.387 228.281H188.476V224.676H198.805V227.734C198.805 229.913 198.341 231.798 197.413 233.389C196.485 234.98 195.208 236.206 193.584 237.068C191.96 237.921 190.096 238.348 187.991 238.348C185.646 238.348 183.587 237.822 181.814 236.77C180.049 235.709 178.67 234.205 177.675 232.258C176.689 230.302 176.196 227.982 176.196 225.298C176.196 223.243 176.486 221.407 177.066 219.792C177.655 218.176 178.475 216.804 179.527 215.678C180.58 214.542 181.814 213.681 183.231 213.092C184.648 212.496 186.189 212.197 187.855 212.197C189.263 212.197 190.577 212.405 191.795 212.819C193.013 213.225 194.094 213.805 195.039 214.559C195.992 215.313 196.775 216.208 197.388 217.244C198.001 218.279 198.403 219.423 198.593 220.674H193.895ZM206.796 238H201.874L210.836 212.545H216.528L225.502 238H220.58L213.781 217.766H213.582L206.796 238ZM206.958 228.02H220.381V231.723H206.958V228.02Z" fill="#F8C437"/>
</svg>